<svg id="icons" enable-background="new 0 0 64 64" height="512" viewBox="0 0 64 64" width="512" xmlns="http://www.w3.org/2000/svg"><path d="m3 47.5c0 .363.197.699.516.875l28 15.5c.15.083.317.125.484.125s.334-.042.484-.125l28-15.5c.319-.176.516-.512.516-.875s-.197-.699-.516-.875l-12.42-6.875 12.42-6.875c.319-.176.516-.512.516-.875s-.197-.698-.516-.875l-12.419-6.875 12.419-6.875c.319-.176.516-.512.516-.875s-.197-.699-.516-.875l-28-15.5c-.301-.166-.668-.166-.969 0l-28 15.5c-.318.176-.515.512-.515.875s.197.699.516.875l12.419 6.875-12.419 6.875c-.319.177-.516.512-.516.875s.197.699.516.875l12.42 6.875-12.42 6.875c-.319.176-.516.512-.516.875zm26.935 0-11.94 6.604-4.931-2.729 11.936-6.606zm2.065 14.357-4.942-2.736 25.938-14.355 4.94 2.734zm18.93-18.235-25.938 14.357-4.933-2.73 12.425-6.873 13.516-7.482zm-32.935-33.726 4.936 2.731-4.933 2.729-4.935-2.731zm6.997-3.875 4.937 2.732-4.933 2.729-4.936-2.731zm18.942 2.728-4.941 2.735-4.934-2.73 4.942-2.735zm6.996 3.873-4.94 2.734-4.933-2.729 4.942-2.734zm-11.938 6.607-4.933-2.729 4.934-2.73 4.932 2.73zm6.997-1.585 4.94 2.734-4.931 2.729-4.941-2.734zm-9.062 2.729-4.933 2.73-4.934-2.73 4.934-2.73zm-.001-7.746-4.932 2.729-4.934-2.729 4.934-2.73zm-11.93 1.143 4.932 2.73-4.933 2.729-4.932-2.729zm-2.066 6.603-4.936 2.731-4.931-2.729 4.935-2.731zm2.065 1.143 4.934 2.73-4.937 2.732-4.933-2.731zm6.999 3.874 4.941 2.735-4.935 2.732-4.942-2.736zm7.007 1.591-4.942-2.735 4.934-2.73 4.941 2.735zm13.994-7.747-4.94-2.734 4.94-2.734 4.94 2.734zm-20.995-17.091 4.936 2.732-4.942 2.735-4.937-2.731zm-21.002 11.626 4.935 2.731-4.935 2.731-4.934-2.731zm7.002 11.624 13.516 7.482c.15.083.317.125.484.125s.334-.042.484-.125l13.516-7.482 11.936 6.607-25.936 14.357-25.936-14.357zm0 15.501 4.935 2.731-11.937 6.606-4.934-2.731z"/></svg>